<svg width="2064" height="512" viewBox="0 0 2064 512" fill="none" xmlns="http://www.w3.org/2000/svg">
<path d="M227 50C227 38.9543 235.954 30 247 30H462C473.046 30 482 38.9543 482 50V462C482 473.046 473.046 482 462 482H227V320.5V50Z" fill="#0B6E4F"/>
<path d="M30 50C30 38.9543 38.9543 30 50 30H207C218.046 30 227 38.9543 227 50V482H50C38.9543 482 30 473.046 30 462V50Z" fill="#50C878"/>
<path d="M50 482C38.9543 482 30 473.046 30 462L30 341C30 329.954 38.9543 321 50 321H319C330.046 321 339 329.954 339 341V482H50Z" fill="#50C878"/>
<path d="M227 158H334C336.761 158 339 160.239 339 163V180C339 182.761 336.761 185 334 185H227V158Z" fill="#50C878"/>
<path d="M621.857 359V153.545H665.295V323.186H753.376V359H621.857ZM851.564 362.01C835.713 362.01 822.07 358.799 810.633 352.379C799.264 345.892 790.503 336.729 784.35 324.891C778.197 312.987 775.12 298.909 775.12 282.657C775.12 266.806 778.197 252.895 784.35 240.924C790.503 228.952 799.163 219.623 810.332 212.935C821.568 206.247 834.743 202.903 849.858 202.903C860.024 202.903 869.487 204.541 878.249 207.818C887.077 211.029 894.768 215.877 901.322 222.365C907.943 228.852 913.093 237.011 916.771 246.843C920.45 256.607 922.289 268.044 922.289 281.152V292.889H792.174V266.405H882.061C882.061 260.252 880.723 254.801 878.048 250.053C875.373 245.304 871.661 241.593 866.913 238.917C862.231 236.175 856.78 234.804 850.561 234.804C844.073 234.804 838.322 236.309 833.306 239.319C828.356 242.261 824.477 246.241 821.668 251.257C818.86 256.206 817.422 261.723 817.355 267.809V292.99C817.355 300.614 818.759 307.202 821.568 312.753C824.444 318.304 828.49 322.584 833.707 325.594C838.923 328.603 845.11 330.108 852.266 330.108C857.014 330.108 861.362 329.439 865.307 328.102C869.253 326.764 872.631 324.758 875.44 322.082C878.249 319.407 880.389 316.13 881.86 312.251L921.386 314.859C919.38 324.356 915.267 332.649 909.047 339.739C902.894 346.761 894.935 352.245 885.171 356.191C875.473 360.07 864.271 362.01 851.564 362.01ZM1019.6 419.994C1005.75 419.994 993.884 418.088 983.986 414.276C974.154 410.531 966.329 405.415 960.511 398.927C954.692 392.44 950.914 385.15 949.175 377.058L988.701 371.741C989.904 374.817 991.811 377.693 994.419 380.368C997.027 383.043 1000.47 385.183 1004.75 386.789C1009.1 388.461 1014.38 389.297 1020.6 389.297C1029.9 389.297 1037.56 387.023 1043.58 382.475C1049.66 377.994 1052.7 370.47 1052.7 359.903V331.713H1050.9C1049.03 335.993 1046.22 340.04 1042.47 343.852C1038.73 347.664 1033.91 350.774 1028.03 353.181C1022.14 355.589 1015.12 356.793 1006.96 356.793C995.389 356.793 984.855 354.118 975.358 348.767C965.928 343.35 958.404 335.09 952.786 323.988C947.235 312.82 944.46 298.708 944.46 281.654C944.46 264.198 947.302 249.618 952.987 237.914C958.672 226.21 966.229 217.449 975.659 211.631C985.156 205.812 995.556 202.903 1006.86 202.903C1015.49 202.903 1022.71 204.374 1028.53 207.317C1034.35 210.193 1039.03 213.804 1042.57 218.151C1046.18 222.432 1048.96 226.645 1050.9 230.792H1052.5V204.909H1094.94V360.505C1094.94 373.613 1091.73 384.581 1085.31 393.41C1078.89 402.238 1069.99 408.859 1058.62 413.273C1047.32 417.754 1034.31 419.994 1019.6 419.994ZM1020.5 324.691C1027.39 324.691 1033.21 322.985 1037.96 319.574C1042.77 316.097 1046.45 311.148 1048.99 304.727C1051.6 298.24 1052.91 290.482 1052.91 281.453C1052.91 272.424 1051.63 264.599 1049.09 257.978C1046.55 251.29 1042.87 246.107 1038.06 242.429C1033.24 238.75 1027.39 236.911 1020.5 236.911C1013.48 236.911 1007.56 238.817 1002.75 242.629C997.93 246.375 994.285 251.591 991.811 258.279C989.336 264.967 988.099 272.692 988.099 281.453C988.099 290.348 989.336 298.039 991.811 304.526C994.352 310.947 997.997 315.929 1002.75 319.474C1007.56 322.952 1013.48 324.691 1020.5 324.691ZM1172.89 361.909C1163.06 361.909 1154.29 360.204 1146.6 356.793C1138.91 353.315 1132.83 348.199 1128.35 341.444C1123.93 334.622 1121.72 326.129 1121.72 315.963C1121.72 307.402 1123.3 300.213 1126.44 294.394C1129.58 288.576 1133.86 283.894 1139.28 280.349C1144.7 276.805 1150.85 274.13 1157.74 272.324C1164.69 270.518 1171.98 269.247 1179.61 268.512C1188.57 267.575 1195.79 266.706 1201.28 265.903C1206.76 265.034 1210.74 263.763 1213.22 262.091C1215.69 260.419 1216.93 257.945 1216.93 254.668V254.066C1216.93 247.712 1214.92 242.796 1210.91 239.319C1206.96 235.841 1201.34 234.102 1194.05 234.102C1186.36 234.102 1180.24 235.808 1175.7 239.218C1171.15 242.562 1168.14 246.776 1166.67 251.859L1127.14 248.648C1129.15 239.285 1133.09 231.193 1138.98 224.371C1144.86 217.482 1152.46 212.199 1161.75 208.521C1171.12 204.775 1181.95 202.903 1194.26 202.903C1202.82 202.903 1211.01 203.906 1218.83 205.912C1226.73 207.919 1233.71 211.029 1239.8 215.242C1245.95 219.455 1250.8 224.873 1254.35 231.494C1257.89 238.048 1259.66 245.906 1259.66 255.069V359H1219.13V337.632H1217.93C1215.46 342.447 1212.15 346.694 1208 350.373C1203.85 353.984 1198.87 356.826 1193.05 358.9C1187.23 360.906 1180.51 361.909 1172.89 361.909ZM1185.13 332.415C1191.41 332.415 1196.96 331.178 1201.78 328.703C1206.59 326.162 1210.37 322.751 1213.12 318.471C1215.86 314.191 1217.23 309.342 1217.23 303.925V287.572C1215.89 288.442 1214.05 289.244 1211.71 289.98C1209.44 290.649 1206.86 291.284 1203.99 291.886C1201.11 292.421 1198.23 292.923 1195.36 293.391C1192.48 293.792 1189.87 294.16 1187.53 294.494C1182.52 295.23 1178.14 296.401 1174.39 298.006C1170.65 299.611 1167.74 301.784 1165.66 304.526C1163.59 307.202 1162.55 310.546 1162.55 314.558C1162.55 320.377 1164.66 324.824 1168.87 327.901C1173.15 330.911 1178.57 332.415 1185.13 332.415ZM1335.56 153.545V359H1292.82V153.545H1335.56Z" fill="#50C878"/>
<path d="M1370.59 359V153.545H1506.63V189.36H1414.03V238.316H1497.6V274.13H1414.03V359H1370.59ZM1577.78 153.545V359H1535.04V153.545H1577.78ZM1681.63 362.01C1666.05 362.01 1652.57 358.699 1641.2 352.078C1629.9 345.39 1621.17 336.094 1615.02 324.189C1608.87 312.218 1605.79 298.34 1605.79 282.556C1605.79 266.639 1608.87 252.728 1615.02 240.824C1621.17 228.852 1629.9 219.556 1641.2 212.935C1652.57 206.247 1666.05 202.903 1681.63 202.903C1697.22 202.903 1710.66 206.247 1721.96 212.935C1733.33 219.556 1742.09 228.852 1748.25 240.824C1754.4 252.728 1757.47 266.639 1757.47 282.556C1757.47 298.34 1754.4 312.218 1748.25 324.189C1742.09 336.094 1733.33 345.39 1721.96 352.078C1710.66 358.699 1697.22 362.01 1681.63 362.01ZM1681.83 328.904C1688.92 328.904 1694.84 326.898 1699.59 322.885C1704.34 318.805 1707.92 313.254 1710.32 306.232C1712.8 299.21 1714.04 291.217 1714.04 282.256C1714.04 273.294 1712.8 265.301 1710.32 258.279C1707.92 251.257 1704.34 245.706 1699.59 241.626C1694.84 237.546 1688.92 235.507 1681.83 235.507C1674.68 235.507 1668.66 237.546 1663.78 241.626C1658.96 245.706 1655.32 251.257 1652.84 258.279C1650.43 265.301 1649.23 273.294 1649.23 282.256C1649.23 291.217 1650.43 299.21 1652.84 306.232C1655.32 313.254 1658.96 318.805 1663.78 322.885C1668.66 326.898 1674.68 328.904 1681.83 328.904ZM1811.8 359L1769.86 204.909H1813.1L1836.98 308.439H1838.38L1863.26 204.909H1905.7L1930.98 307.837H1932.28L1955.76 204.909H1998.89L1957.06 359H1911.82L1885.33 262.091H1883.43L1856.94 359H1811.8Z" fill="#0B6E4F"/>
</svg>
