<svg width="512" height="512" viewBox="0 0 512 512" fill="none" xmlns="http://www.w3.org/2000/svg">
<path d="M227 50C227 38.9543 235.954 30 247 30H462C473.046 30 482 38.9543 482 50V462C482 473.046 473.046 482 462 482H227V320.5V50Z" fill="#0B6E4F"/>
<path d="M30 50C30 38.9543 38.9543 30 50 30H207C218.046 30 227 38.9543 227 50V482H50C38.9543 482 30 473.046 30 462V50Z" fill="#50C878"/>
<path d="M50 482C38.9543 482 30 473.046 30 462L30 341C30 329.954 38.9543 321 50 321H319C330.046 321 339 329.954 339 341V482H50Z" fill="#50C878"/>
<path d="M227 158H334C336.761 158 339 160.239 339 163V180C339 182.761 336.761 185 334 185H227V158Z" fill="#50C878"/>
</svg>
